<?xml version="1.0" standalone="no"?><!DOCTYPE svg PUBLIC "-//W3C//DTD SVG 1.1//EN" "http://www.w3.org/Graphics/SVG/1.1/DTD/svg11.dtd"><svg class="icon" height="512" viewBox="0 0 1024 1024" version="1.1" xmlns="http://www.w3.org/2000/svg"><path d="M965.9648 557.9264 519.3216 141.5936c-7.3728-6.8864-18.7904-6.8864-26.1632 0L46.464 557.9264c-7.7568 7.2448-8.192 19.3792-0.9728 27.136 3.7888 4.0704 8.9088 6.1184 14.0544 6.1184 4.6848 0 9.3952-1.7152 13.0816-5.1456L506.2144 181.888 939.776 586.0352c7.7824 7.2192 19.9168 6.8352 27.136-0.9728C974.1568 577.3056 973.7216 565.1712 965.9648 557.9264zM519.3216 338.7904c-7.3728-6.8864-18.7904-6.8864-26.1632 0L142.4384 665.6768c-3.8912 3.6352-6.1184 8.7296-6.1184 14.0544l0 144.256c0 40.7808 33.152 73.9328 73.9328 73.9328l135.9616 0c10.5984 0 19.2-8.6016 19.2-19.2l0-180.7616 275.2 0 0 180.7616c0 10.5984 8.6016 19.2 19.2 19.2l142.3616 0c40.7808 0 73.9328-33.152 73.9328-73.9328l0-144.256c0-5.3248-2.2016-10.4192-6.1184-14.0544L519.3216 338.7904zM837.7088 823.9872c0 19.6096-15.9488 35.5328-35.5328 35.5328l-123.1616 0 0-180.7616c0-10.5984-8.6016-19.2-19.2-19.2l-313.6 0c-10.5984 0-19.2 8.6016-19.2 19.2l0 180.7616L210.2784 859.52c-19.6096 0-35.5328-15.9488-35.5328-35.5328l0-135.9104 331.4944-308.992 331.4944 308.992L837.7344 823.9872z" /></svg>